<svg xmlns="http://www.w3.org/2000/svg" viewBox="0 0 64 64" role="img" aria-label="StudyFlow">
  <rect width="64" height="64" rx="18" fill="#000000"/>
  <circle cx="48" cy="16" r="7" fill="#c5b0f4"/>
  <circle cx="17" cy="48" r="6" fill="#dceeb1"/>
  <path fill="#ffffff" d="M32.9 48.5c-4.7 0-8.9-1-12.6-3.1v-7.2c1.9 1.3 4 2.3 6.3 3 2.3.8 4.5 1.1 6.6 1.1 2.5 0 4.3-.4 5.4-1.2 1.1-.8 1.7-1.8 1.7-3.1 0-1.1-.5-2-1.5-2.7-1-.7-2.8-1.4-5.4-2.2l-3.2-.9c-3.4-1-5.9-2.4-7.6-4.2-1.7-1.8-2.5-4.1-2.5-6.9 0-3.8 1.4-6.8 4.2-8.9 2.8-2.1 6.7-3.2 11.7-3.2 4 0 7.6.8 10.8 2.3v7c-3.5-2-7.1-3-10.9-3-2.2 0-3.9.4-5 1.1-1.1.7-1.7 1.7-1.7 2.9 0 1.1.4 1.9 1.3 2.5.9.6 2.5 1.3 4.9 2l3.3.9c3.8 1.1 6.5 2.6 8.2 4.5 1.7 1.9 2.6 4.2 2.6 7.1 0 3.9-1.5 7-4.4 9.1-2.9 2-7 3.1-12.2 3.1Z"/>
</svg>
